# xmcd
#
# Track frame offsets:
#	150
#	15469
#	31723
#	51819
#	68334
#	86294
#	109137
#	122615
#	137700
#	151338
#	170448
#	186140
#
# Disc length: 2601 seconds
#
# Revision: 1
# Processed by: cddbd v1.5.1PL0 Copyright (c) Steve Scherf et al.
# Submitted via: CDmax 2.0
#
DISCID=880a270c
DTITLE=Charlie Hart - Disorder On The Border
DYEAR=1993
DGENRE=Soul
TTITLE0=New Mexican Man
TTITLE1=Seven Mabone
TTITLE2=Love Has No Pride
TTITLE3=Dynamite
TTITLE4=Allon Rock And Roll
TTITLE5=C13/Equator 1
TTITLE6=Tired Of Living In The Country
TTITLE7=Basile Mille Etolles
TTITLE8=Monsieur Concorde
TTITLE9=Louise, Louise
TTITLE10=C'est Ca
TTITLE11=That Ol' Mule
EXTD=
EXTT0=
EXTT1=
EXTT2=
EXTT3=
EXTT4=
EXTT5=
EXTT6=
EXTT7=
EXTT8=
EXTT9=
EXTT10=
EXTT11=
PLAYORDER=
